<?xml version="1.0" encoding="UTF-8"?>
<svg width="11px" height="6px" viewBox="0 0 11 6" version="1.1" xmlns="http://www.w3.org/2000/svg" xmlns:xlink="http://www.w3.org/1999/xlink">
    <!-- Generator: Sketch 41.2 (35397) - http://www.bohemiancoding.com/sketch -->
    <title></title>
    <desc>Created with Sketch.</desc>
    <defs></defs>
    <g id="Symbols" stroke="none" stroke-width="1" fill="none" fill-rule="evenodd">
        <g id="Header-Desktop" transform="translate(-180.000000, -106.000000)" fill="#000000">
            <g id="Group-18">
                <path d="M190.797991,106.964286 C190.797991,107.05134 190.764509,107.128348 190.697545,107.195312 L186.016741,111.876116 C185.949776,111.943081 185.872768,111.976562 185.785714,111.976562 C185.69866,111.976562 185.621652,111.943081 185.554688,111.876116 L180.873884,107.195312 C180.806919,107.128348 180.773438,107.05134 180.773438,106.964286 C180.773438,106.877232 180.806919,106.800224 180.873884,106.733259 L181.376116,106.231027 C181.443081,106.164062 181.520089,106.13058 181.607143,106.13058 C181.694197,106.13058 181.771205,106.164062 181.83817,106.231027 L185.785714,110.178571 L189.733259,106.231027 C189.800224,106.164062 189.877232,106.13058 189.964286,106.13058 C190.05134,106.13058 190.128348,106.164062 190.195312,106.231027 L190.697545,106.733259 C190.764509,106.800224 190.797991,106.877232 190.797991,106.964286 Z" id=""></path>
            </g>
        </g>
    </g>
</svg>