<?xml version="1.0" encoding="UTF-8"?>
<svg width="60px" height="60px" viewBox="0 0 60 60" version="1.1" xmlns="http://www.w3.org/2000/svg" xmlns:xlink="http://www.w3.org/1999/xlink">
    <!-- Generator: Sketch 41.2 (35397) - http://www.bohemiancoding.com/sketch -->
    <title>Group 2</title>
    <desc>Created with Sketch.</desc>
    <defs>
        <path d="M30,60 C46.5685425,60 60,46.5685425 60,30 C60,13.4314575 46.5685425,0 30,0 C13.4314575,0 0,13.4314575 0,30 C0,46.5685425 13.4314575,60 30,60 Z" id="path-1"></path>
        <mask id="mask-2" maskContentUnits="userSpaceOnUse" maskUnits="objectBoundingBox" x="0" y="0" width="60" height="60" fill="white">
            <use xlink:href="#path-1"></use>
        </mask>
    </defs>
    <g id="Symbols" stroke="none" stroke-width="1" fill="none" fill-rule="evenodd">
        <g id="Social/facebook">
            <g id="Group-2">
                <use id="Oval-27" stroke="#B7BCC0" mask="url(#mask-2)" stroke-width="2" fill="#FFFFFF" xlink:href="#path-1"></use>
                <path d="M31.6250067,24.6997633 C32.0167482,24.6997633 32.549115,24.7700759 32.9810351,24.8604778 C33.0814817,24.8805671 33.1919729,24.8604778 33.2823748,24.8002099 C33.3727766,24.7399419 33.4330446,24.6394954 33.4430892,24.5390488 L33.7142949,22.5803411 C33.7343842,22.3995374 33.623893,22.2086889 33.4330446,22.1584656 C32.7299187,21.9575725 31.966525,21.857126 31.1729972,21.857126 C28.7723247,21.857126 27.6071448,23.0022166 27.6071448,25.3727552 L27.6071448,26.4073546 L26.3816969,26.4073546 C26.1707591,26.4073546 26,26.5781138 26,26.7890515 L26,28.7979825 C26,29.0189649 26.1707591,29.189724 26.3816969,29.189724 L27.6071448,29.189724 L27.6071448,36.9040189 C27.6071448,37.1149567 27.7779039,37.2857158 27.9888417,37.2857158 L30.5000054,37.2857158 C30.7008985,37.2857158 30.8716576,37.1149567 30.8716576,36.9040189 L30.8716576,29.189724 L32.9006779,29.189724 C33.101571,29.189724 33.2622854,29.0290095 33.2823748,28.8281165 L33.4229999,26.8191855 C33.4330446,26.7086943 33.392866,26.6082477 33.3225534,26.5278905 C33.2522408,26.4475333 33.1517942,26.4073546 33.0513477,26.4073546 L30.8716576,26.4073546 L30.8716576,25.523425 C30.8716576,24.8604778 30.9419702,24.6997633 31.6250067,24.6997633 L31.6250067,24.6997633 Z" id="facebook-ico" fill="#BBBDBF"></path>
            </g>
        </g>
    </g>
</svg>