<?xml version="1.0" encoding="UTF-8"?>
<svg width="36px" height="30px" viewBox="0 0 36 30" version="1.1" xmlns="http://www.w3.org/2000/svg" xmlns:xlink="http://www.w3.org/1999/xlink">
    <!-- Generator: Sketch 41.2 (35397) - http://www.bohemiancoding.com/sketch -->
    <title></title>
    <desc>Created with Sketch.</desc>
    <defs></defs>
    <g id="Symbols" stroke="none" stroke-width="1" fill="none" fill-rule="evenodd">
        <g id="Header-Tablet" transform="translate(-712.000000, -20.000000)" fill="#9EA3A3">
            <g id="Group-15">
                <path d="M747.142857,45.6071429 L747.142857,48.5357143 C747.142857,48.9322936 746.997955,49.2754822 746.708147,49.5652902 C746.418339,49.8550982 746.075151,50 745.678571,50 L713.464286,50 C713.067706,50 712.724518,49.8550982 712.43471,49.5652902 C712.144902,49.2754822 712,48.9322936 712,48.5357143 L712,45.6071429 C712,45.2105635 712.144902,44.867375 712.43471,44.577567 C712.724518,44.287759 713.067706,44.1428571 713.464286,44.1428571 L745.678571,44.1428571 C746.075151,44.1428571 746.418339,44.287759 746.708147,44.577567 C746.997955,44.867375 747.142857,45.2105635 747.142857,45.6071429 Z M747.142857,33.8928571 L747.142857,36.8214286 C747.142857,37.2180079 746.997955,37.5611965 746.708147,37.8510045 C746.418339,38.1408125 746.075151,38.2857143 745.678571,38.2857143 L713.464286,38.2857143 C713.067706,38.2857143 712.724518,38.1408125 712.43471,37.8510045 C712.144902,37.5611965 712,37.2180079 712,36.8214286 L712,33.8928571 C712,33.4962778 712.144902,33.1530892 712.43471,32.8632812 C712.724518,32.5734733 713.067706,32.4285714 713.464286,32.4285714 L745.678571,32.4285714 C746.075151,32.4285714 746.418339,32.5734733 746.708147,32.8632812 C746.997955,33.1530892 747.142857,33.4962778 747.142857,33.8928571 Z M747.142857,22.1785714 L747.142857,25.1071429 C747.142857,25.5037222 746.997955,25.8469108 746.708147,26.1367188 C746.418339,26.4265267 746.075151,26.5714286 745.678571,26.5714286 L713.464286,26.5714286 C713.067706,26.5714286 712.724518,26.4265267 712.43471,26.1367188 C712.144902,25.8469108 712,25.5037222 712,25.1071429 L712,22.1785714 C712,21.7819921 712.144902,21.4388035 712.43471,21.1489955 C712.724518,20.8591875 713.067706,20.7142857 713.464286,20.7142857 L745.678571,20.7142857 C746.075151,20.7142857 746.418339,20.8591875 746.708147,21.1489955 C746.997955,21.4388035 747.142857,21.7819921 747.142857,22.1785714 Z" id=""></path>
            </g>
        </g>
    </g>
</svg>