<?xml version="1.0" encoding="UTF-8"?>
<svg width="11px" height="17px" viewBox="0 0 11 17" version="1.1" xmlns="http://www.w3.org/2000/svg" xmlns:xlink="http://www.w3.org/1999/xlink">
    <!-- Generator: Sketch 41.2 (35397) - http://www.bohemiancoding.com/sketch -->
    <title></title>
    <desc>Created with Sketch.</desc>
    <defs></defs>
    <g id="01-Homepage" stroke="none" stroke-width="1" fill="none" fill-rule="evenodd">
        <g id="01-Desktop" transform="translate(-1149.000000, -1764.000000)" fill="#000000">
            <g id="Group-5" transform="translate(0.000000, 1345.000000)">
                <g id="Group-6">
                    <g id="Group-9" transform="translate(1129.000000, 402.000000)">
                        <path d="M30.4966518,18.3928571 C30.4966518,18.5379472 30.4408488,18.6662941 30.3292411,18.7779018 L23.75,25.3571429 L30.3292411,31.9363839 C30.4408488,32.0479916 30.4966518,32.1763386 30.4966518,32.3214286 C30.4966518,32.4665186 30.4408488,32.5948655 30.3292411,32.7064732 L29.4921875,33.5435268 C29.3805798,33.6551345 29.2522329,33.7109375 29.1071429,33.7109375 C28.9620528,33.7109375 28.8337059,33.6551345 28.7220982,33.5435268 L20.9207589,25.7421875 C20.8091512,25.6305798 20.7533482,25.5022329 20.7533482,25.3571429 C20.7533482,25.2120528 20.8091512,25.0837059 20.9207589,24.9720982 L28.7220982,17.1707589 C28.8337059,17.0591512 28.9620528,17.0033482 29.1071429,17.0033482 C29.2522329,17.0033482 29.3805798,17.0591512 29.4921875,17.1707589 L30.3292411,18.0078125 C30.4408488,18.1194202 30.4966518,18.2477671 30.4966518,18.3928571 Z" id=""></path>
                    </g>
                </g>
            </g>
        </g>
    </g>
</svg>