<?xml version="1.0" encoding="UTF-8"?>
<svg width="11px" height="17px" viewBox="0 0 11 17" version="1.1" xmlns="http://www.w3.org/2000/svg" xmlns:xlink="http://www.w3.org/1999/xlink">
    <!-- Generator: Sketch 41.2 (35397) - http://www.bohemiancoding.com/sketch -->
    <title> copy</title>
    <desc>Created with Sketch.</desc>
    <defs></defs>
    <g id="01-Homepage" stroke="none" stroke-width="1" fill="none" fill-rule="evenodd">
        <g id="01-Desktop" transform="translate(-1202.000000, -1764.000000)" fill="#000000">
            <g id="Group-5" transform="translate(0.000000, 1345.000000)">
                <g id="Group-6">
                    <g id="Group-9" transform="translate(1129.000000, 402.000000)">
                        <path d="M83.4966518,18.3928571 C83.4966518,18.5379472 83.4408488,18.6662941 83.3292411,18.7779018 L76.75,25.3571429 L83.3292411,31.9363839 C83.4408488,32.0479916 83.4966518,32.1763386 83.4966518,32.3214286 C83.4966518,32.4665186 83.4408488,32.5948655 83.3292411,32.7064732 L82.4921875,33.5435268 C82.3805798,33.6551345 82.2522329,33.7109375 82.1071429,33.7109375 C81.9620528,33.7109375 81.8337059,33.6551345 81.7220982,33.5435268 L73.9207589,25.7421875 C73.8091512,25.6305798 73.7533482,25.5022329 73.7533482,25.3571429 C73.7533482,25.2120528 73.8091512,25.0837059 73.9207589,24.9720982 L81.7220982,17.1707589 C81.8337059,17.0591512 81.9620528,17.0033482 82.1071429,17.0033482 C82.2522329,17.0033482 82.3805798,17.0591512 82.4921875,17.1707589 L83.3292411,18.0078125 C83.4408488,18.1194202 83.4966518,18.2477671 83.4966518,18.3928571 Z" id="-copy" transform="translate(78.625000, 25.357143) scale(-1, 1) translate(-78.625000, -25.357143) "></path>
                    </g>
                </g>
            </g>
        </g>
    </g>
</svg>