<?xml version="1.0" encoding="UTF-8"?>
<svg width="13px" height="13px" viewBox="0 0 13 13" version="1.1" xmlns="http://www.w3.org/2000/svg" xmlns:xlink="http://www.w3.org/1999/xlink">
    <!-- Generator: Sketch 41.2 (35397) - http://www.bohemiancoding.com/sketch -->
    <title>search icon</title>
    <desc>Created with Sketch.</desc>
    <defs></defs>
    <g id="Symbols" stroke="none" stroke-width="1" fill="none" fill-rule="evenodd">
        <g id="Search-box/Round" transform="translate(-273.000000, -14.000000)" fill="#D0D2D3">
            <path d="M282.000011,19.4999934 C282.000011,21.4296832 280.429696,22.9999976 278.500007,22.9999976 C276.570317,22.9999976 275.000002,21.4296832 275.000002,19.4999934 C275.000002,17.5703036 276.570317,15.9999893 278.500007,15.9999893 C280.429696,15.9999893 282.000011,17.5703036 282.000011,19.4999934 L282.000011,19.4999934 Z M286.000015,26.0000012 C286.000015,25.7343759 285.89064,25.4765631 285.710953,25.2968754 L283.031262,22.6171847 C283.664075,21.7031211 284.000013,20.6093698 284.000013,19.4999934 C284.000013,16.4609273 281.539073,13.9999869 278.500007,13.9999869 C275.46094,13.9999869 273,16.4609273 273,19.4999934 C273,22.5390596 275.46094,25 278.500007,25 C279.609383,25 280.703134,24.6640621 281.617198,24.0312488 L284.296888,26.703127 C284.476576,26.8906273 284.734389,27.0000024 285.000014,27.0000024 C285.54689,27.0000024 286.000015,26.5468768 286.000015,26.0000012 L286.000015,26.0000012 Z" id="search-icon"></path>
        </g>
    </g>
</svg>