<?xml version="1.0" encoding="UTF-8"?>
<svg width="60px" height="60px" viewBox="0 0 60 60" version="1.1" xmlns="http://www.w3.org/2000/svg" xmlns:xlink="http://www.w3.org/1999/xlink">
    <!-- Generator: Sketch 41.2 (35397) - http://www.bohemiancoding.com/sketch -->
    <title>Group 2</title>
    <desc>Created with Sketch.</desc>
    <defs>
        <circle id="path-1" cx="30" cy="30" r="30"></circle>
        <mask id="mask-2" maskContentUnits="userSpaceOnUse" maskUnits="objectBoundingBox" x="0" y="0" width="60" height="60" fill="white">
            <use xlink:href="#path-1"></use>
        </mask>
    </defs>
    <g id="Symbols" stroke="none" stroke-width="1" fill="none" fill-rule="evenodd">
        <g id="Social/twitter">
            <g id="Group-2">
                <use id="Oval-27" stroke="#B7BCC0" mask="url(#mask-2)" stroke-width="2" fill="#FFFFFF" xlink:href="#path-1"></use>
                <path d="M36.648455,24.6093638 C36.648455,24.4765511 36.5390798,24.3593635 36.3984547,24.3593635 C36.3203296,24.3593635 35.7812664,24.5859263 35.6406413,24.6249888 C35.8281415,24.4062386 36.2578295,23.7421753 36.2578295,23.4609249 C36.2578295,23.3281123 36.1484544,23.2109246 36.0078292,23.2109246 C35.9687667,23.2109246 35.9218916,23.2265497 35.882829,23.2499872 C35.3515784,23.53905 34.8437653,23.7656128 34.2500146,23.8906129 C33.6640764,23.3281123 32.8672005,22.9999869 32.046887,22.9999869 C30.3125099,22.9999869 28.8906332,24.4140511 28.8906332,26.1562406 C28.8906332,26.2812408 28.8984457,26.4140535 28.9218833,26.5390536 C27.2031312,26.3906159 25.5703168,25.6718651 24.2890652,24.5234262 C23.9765649,24.2421759 23.7109395,23.937488 23.4296892,23.6249876 C23.3671891,23.554675 23.3125016,23.5312375 23.2187515,23.5312375 C23.1328139,23.5312375 23.0625013,23.5937376 23.0234387,23.6562377 C22.7421884,24.0703007 22.5937507,24.7421765 22.5937507,25.2421771 C22.5937507,25.9687404 22.843751,26.6796788 23.3125016,27.2421794 C23.1640639,27.1953044 22.9375011,27.0468667 22.8046885,27.0468667 C22.6406258,27.0468667 22.5000006,27.1640544 22.5000006,27.328117 C22.5000006,28.4218684 23.1015638,29.4374946 24.0234399,30.0078077 C23.9531273,29.9999952 23.8906273,29.9765577 23.8203147,29.9765577 C23.687502,29.9765577 23.5781269,30.0937453 23.5781269,30.2187455 C23.5781269,30.2499955 23.5859394,30.2734331 23.5937519,30.3046831 C23.9375023,31.3593719 24.7968783,32.1562478 25.8750046,32.4062481 C24.9921911,32.9531238 23.9765649,33.2343741 22.9453136,33.2343741 C22.7109383,33.2343741 22.4765631,33.1953115 22.2500003,33.1953115 C22.1093751,33.1953115 22,33.3124992 22,33.4453118 C22,33.5312494 22.0468751,33.601562 22.1171876,33.6562496 C22.3203129,33.8046873 22.5703132,33.9296874 22.7968759,34.0468751 C24.0000024,34.6718758 25.343754,35.0000012 26.7031306,35.0000012 C30.1093847,35.0000012 33.0234506,33.171874 34.4297023,30.0624953 C34.9375154,28.9453065 35.2343908,27.7187425 35.2109532,26.4921785 L35.2109532,26.2343657 C35.7422039,25.8359278 36.2578295,25.3203022 36.6093924,24.749989 C36.6328299,24.7109264 36.648455,24.6640514 36.648455,24.6093638 L36.648455,24.6093638 Z" id="twiiter-ico" fill="#BBBDBF"></path>
            </g>
        </g>
    </g>
</svg>